Simulation
nRows=34
nColumns=15
endheader
time  TH_x TH_y TH_z SC_y  SC_z  SC_x  AC_y  AC_z  AC_x  GH_y  GH_z  GH_yy  EL_x  PS_y
2.6910411985018725  0.000000  0.000000  0.000000  -22.948851885874152  5.541263020336582  -5.068596386337026  56.02599802425514  9.66501692298917  7.095917158904657  -6.974015592794357  3.1063314752552365  35.93559079083278  15.880050068622054  120.000000
2.7312059925093632  0.000000  0.000000  0.000000  -23.05256703350359  5.5594869216529865  -4.934894907334586  56.59971098806174  10.112581681936273  7.458148987633406  -7.226910193103246  0.7055092853170012  38.767138064747  16.640195320609845  120.000000
2.771370786516854  0.000000  0.000000  0.000000  -23.275350850696185  5.595592705711733  -4.782953057319837  57.10307909066674  10.499647617148256  7.752451938953158  175.31062118471428  1.6022950985255437  -141.38544047373853  17.319067116082657  120.000000
2.8115355805243447  0.000000  0.000000  0.000000  -23.571925264492172  5.646369009966307  -4.635776670464224  57.523776545853984  10.826829976875255  7.982174676621633  176.37013892335722  3.8057691566437035  -140.2578862956569  17.88484125125836  120.000000
2.851700374531835  0.000000  0.000000  0.000000  -23.90465599760345  5.710195745074598  -4.502151368604169  57.858596183866105  11.103998615454708  8.154012807540182  177.91852195868154  5.887312118783881  -139.81408115545574  18.31859720204234  120.000000
2.8918651685393257  0.000000  0.000000  0.000000  -24.247934643795624  5.784178290973227  -4.38099427595126  58.11118384811605  11.34507445575579  8.280491014632469  179.6732660835043  7.828377355158565  -139.76683185433572  18.61648242124417  120.000000
2.9320299625468165  0.000000  0.000000  0.000000  -24.58695978099728  5.86444653513958  -4.267176069550462  58.28752677793576  11.562726566635693  8.377065107311001  -178.47931041243112  9.613992588201915  -139.99918037561008  18.786202935134465  120.000000
2.972194756554307  0.000000  0.000000  0.000000  -24.911799026469303  5.950430733753645  -4.157179981153812  58.39580822159466  11.766217291766367  8.453744804527311  -176.6067656705801  11.235141501303907  -140.43980183312547  18.843411046465697  120.000000
3.012359550561798  0.000000  0.000000  0.000000  -25.21628499047961  6.04444424852996  -4.052582910435455  58.44547667128804  11.961115200977472  8.514444746261177  -174.7628243533381  12.689373884687475  -141.0293557018067  18.809329136981116  120.000000
3.0525243445692882  0.000000  0.000000  0.000000  -25.49608796525177  6.14651493489956  -3.957857110685262  58.444233846865075  12.148031421860765  8.562790115087106  -172.98397723983845  13.979663201185005  -141.7237102765758  18.70797405190213  120.000000
3.092689138576779  0.000000  0.000000  0.000000  -25.746964202137683  6.253854921290274  -3.8781593278836186  58.39956320313346  12.323675633783772  8.602126119867478  -171.3009201748395  15.111434117850436  -142.48395246286316  18.563946315915057  120.000000
3.1328539325842697  0.000000  0.000000  0.000000  -25.965269853061802  6.3633544868198255  -3.8190481764717052  58.31920116071543  12.48356253844779  8.635583648454915  -169.74203228223686  16.090568295941384  -143.27260103868036  18.399563663584356  120.000000
3.1730187265917604  0.000000  0.000000  0.000000  -26.14793538520956  6.471749152465945  -3.785982584021173  58.21062102700102  12.623573655914539  8.665863407518952  -168.33212222595085  16.921957910753594  -144.05547579396472  18.232344236513274  120.000000
3.2131835205992507  0.000000  0.000000  0.000000  -26.292546766264504  6.575817953762253  -3.7834480306354004  58.08048636414629  12.740034158722246  8.695637682530895  -167.08926104583884  17.609224874487904  -144.8045356746154  18.073621267985384  120.000000
3.2533483146067415  0.000000  0.000000  0.000000  -26.397413341095426  6.672879489958881  -3.8154307853158085  57.93480661416704  12.829470491017016  8.727037032935469  -166.02551145399934  18.155147116502334  -145.49759300229155  17.92880322808268  120.000000
3.293513108614232  0.000000  0.000000  0.000000  -26.46150837364308  6.761009319327983  -3.885930174715567  57.7794013486181  12.888797123222462  8.761275353371788  -165.14810299238465  18.561750604704585  -146.117293816437  17.79872493085  120.000000
3.333677902621723  0.000000  0.000000  0.000000  -26.48454826437207  6.838908202608133  -3.998275405119993  57.61925235864717  12.916159045324452  8.799515484863793  -164.46036473602155  18.829656209295717  -146.65040767386142  17.68144440224376  120.000000
3.3738426966292137  0.000000  0.000000  0.000000  -26.46695346217125  6.9055289786418745  -4.153740157593597  57.458199922955856  12.911763788863183  8.84339213362581  -163.96359120616268  18.95706683797608  -147.08651983074378  17.573943864245663  120.000000
3.414007490636704  0.000000  0.000000  0.000000  -26.409773996337538  6.960257730838954  -4.350868239103595  57.29904957429682  12.877692350820114  8.894818675675024  -163.65755629680987  18.93978497670053  -147.41765971430075  17.473596394994804  120.000000
3.4541722846441947  0.000000  0.000000  0.000000  -26.31486076651143  7.003296194942605  -4.586289257005713  57.144097457607884  12.817132542942746  8.955152170986235  -163.5403914218486  18.772077273628252  -147.63870853630928  17.37891029391647  120.000000
3.4943370786516854  0.000000  0.000000  0.000000  -26.185018010479627  7.035777160968923  -4.855538191195923  56.994976806786234  12.73375512479438  9.02500719806616  -163.60721025023557  18.447601833130058  -147.74860461184838  17.28940280698354  120.000000
3.534501872659176  0.000000  0.000000  0.000000  -26.023986030996642  7.059483216838644  -5.153210729028695  56.85236761327585  12.631651395245267  9.104675315674573  -163.84973035239787  17.95965736460709  -147.75060901693868  17.204980433336456  120.000000
3.574666666666667  0.000000  0.000000  0.000000  -25.836366553721156  7.076695660398507  -5.4724510499271455  56.7165218320775  12.51536571957467  9.193815838792956  -164.25989256285874  17.30089764219004  -147.64907477188135  17.124866283909128  120.000000
3.614831460674157  0.000000  0.000000  0.000000  -25.627805743957488  7.090363601354178  -5.8048504876563936  56.58664710790495  12.38974773210377  9.292012398601948  -164.82902776028115  16.463739009395248  -147.44996538467464  17.04656947733362  120.000000
3.654996254681648  0.000000  0.000000  0.000000  -25.404469050391146  7.103740153897899  -6.142548302040116  56.46055344473285  12.260061997700554  9.398874964701454  -165.54554433521164  15.441926683434883  -147.16252593504942  16.964901876806884  120.000000
3.6951610486891386  0.000000  0.000000  0.000000  -25.171846854721206  7.119297290479948  -6.4806864151238806  56.33582772455232  12.130917955656074  9.513409249444498  -166.39716407253042  14.232170702201966  -146.7965704939871  16.87233728595919  120.000000
3.7353258426966294  0.000000  0.000000  0.000000  -24.933008235941532  7.137098328994842  -6.818950054195829  56.210933026821266  12.004793042757676  9.63474024567689  -167.37640495092705  12.835521337667856  -146.35699605453178  16.75984514622738  120.000000
3.7754906367041197  0.000000  0.000000  0.000000  -24.68698917404408  7.153862868162991  -7.162336541290501  56.08618403544272  11.881056636595996  9.762453649273892  -168.48691024501719  11.257800858237353  -145.83814594340774  16.61814959664536  120.000000
3.8156554307116104  0.000000  0.000000  0.000000  -24.427939470140778  7.163036483923836  -7.52029015495226  55.96338687018185  11.755188063877435  9.8961412005007  -169.74712909230237  9.509660082631502  -145.22012910309383  16.43864318082424  120.000000
3.855820224719101  0.000000  0.000000  0.000000  -24.145774984185536  7.154513297671612  -7.905511344172987  55.84365628949813  11.61989790806496  10.035287813619366  -171.1918509792786  7.60646696134816  -144.46727790755713  16.21331955698218  120.000000
3.895985018726592  0.000000  0.000000  0.000000  -23.828501167925513  7.116779964285199  -8.333156312476396  55.727165396917464  11.467693671258173  10.179259917046638  -172.9041790875225  5.566979495063653  -143.4963385265376  15.935419073120956  120.000000
3.9361498127340826  0.000000  0.000000  0.000000  -23.463123635650348  7.039198751934153  -8.817921299961833  55.613538054781785  11.292346572597623  10.327221585583608  -175.2263845961182  3.41165027356024  -141.96551519821438  15.600775457326542  120.000000
3.976314606741573  0.000000  0.000000  0.000000  -23.041404063086578  6.91222868393083  -9.370654427741758  55.50197965954017  11.091516807911848  10.478769770051645  178.4272208166645  1.1626988045970041  -136.4630965995638  15.209946452335016  120.000000
4.016479400749064  0.000000  0.000000  0.000000  -22.568840955158837  6.729825629000243  -9.995095467182775  55.392065129814796  10.870080878277554  10.633952739937  12.411888005282165  1.2029316900153841  28.648951058019883  14.770488917914744  120.000000
